<svg xmlns="http://www.w3.org/2000/svg" xmlns:xlink="http://www.w3.org/1999/xlink" width="19" height="21" viewBox="0 0 19 21">
  <defs>
    <style>
      .cls-1 {
        fill: #bdc3c7;
        fill-rule: evenodd;
        opacity: 0.7;
        filter: url(#filter);
      }
    </style>
    <filter id="filter" x="525" y="179" width="19" height="21" filterUnits="userSpaceOnUse">
      <feFlood result="flood" flood-color="#b7bacd"/>
      <feComposite result="composite" operator="in" in2="SourceGraphic"/>
      <feBlend result="blend" in2="SourceGraphic"/>
    </filter>
  </defs>
  <path id="card.svg" class="cls-1" d="M543.993,190.308a4.8,4.8,0,0,1-4.747,4.849,4.657,4.657,0,0,1-3.774-1.957l-0.023.017-0.949-1.293-0.95,1.293-0.013-.01a4.693,4.693,0,0,1-3.784,1.95,4.8,4.8,0,0,1-4.746-4.849,4.876,4.876,0,0,1,.962-2.9l-0.013-.01s6.962-8.406,8.544-8.406,8.543,8.406,8.543,8.406l-0.013.01A4.876,4.876,0,0,1,543.993,190.308Zm-11.075,6.465v-1.616a1.582,1.582,0,1,1,3.164,0v1.616a1.617,1.617,0,0,1,0,3.234h-3.164A1.617,1.617,0,0,1,532.918,196.773Z" transform="translate(-525 -179)"/>
</svg>
