<svg xmlns="http://www.w3.org/2000/svg" xmlns:xlink="http://www.w3.org/1999/xlink" width="22.375" height="22.375" viewBox="0 0 22.375 22.375">
  
    
  </defs>
  <path id="tooltip.svg" class="cls-1" d="M362.4,197h-3.62l-3.79,3.79h0a1.4,1.4,0,0,1-1.98,0h0L349.22,197H345.6a2.8,2.8,0,0,1-2.8-2.8V181.6a2.8,2.8,0,0,1,2.8-2.8h16.8a2.8,2.8,0,0,1,2.8,2.8v12.6A2.8,2.8,0,0,1,362.4,197Zm0-14a1.4,1.4,0,0,0-1.4-1.4H347a1.4,1.4,0,0,0-1.4,1.4v9.8a1.4,1.4,0,0,0,1.4,1.4h2.8a1.4,1.4,0,0,1,.99.41h0l3.21,3.209,3.21-3.209h0a1.392,1.392,0,0,1,.99-0.41H361a1.4,1.4,0,0,0,1.4-1.4V183Zm-4.2,8.4h-8.4a1.4,1.4,0,0,1,0-2.8h8.4A1.4,1.4,0,1,1,358.2,191.4Zm0-4.2h-8.4a1.4,1.4,0,0,1,0-2.8h8.4A1.4,1.4,0,1,1,358.2,187.2Z" transform="translate(-342.813 -178.813)"/>
</svg>
